<?xml version="1.0" standalone="no"?>
<!DOCTYPE svg PUBLIC "-//W3C//DTD SVG 20010904//EN"
 "http://www.w3.org/TR/2001/REC-SVG-20010904/DTD/svg10.dtd">
<svg version="1.0" xmlns="http://www.w3.org/2000/svg"
 width="700.000000pt" height="700.000000pt" viewBox="0 0 700.000000 700.000000"
 preserveAspectRatio="xMidYMid meet">
<metadata>
Created by potrace 1.14, written by Peter Selinger 2001-2017
</metadata>
<g transform="translate(0.000000,700.000000) scale(0.100000,-0.100000)"
fill="#000000" stroke="none">
<path d="M2850 5973 c-672 -793 -1220 -1620 -1477 -2233 -203 -482 -246 -798
-163 -1198 29 -137 73 -262 146 -407 185 -373 507 -672 896 -835 334 -139 746
-167 1103 -75 490 127 896 458 1120 910 132 267 173 431 182 715 6 204 -9 333
-62 515 -172 603 -661 1429 -1358 2300 -110 136 -317 385 -321 385 0 0 -30
-35 -66 -77z m-480 -1905 c250 -75 337 -397 160 -591 -89 -98 -212 -141 -332
-117 -80 15 -129 41 -189 97 -180 168 -139 465 79 581 89 47 188 58 282 30z
m1428 -131 l152 -152 -878 -878 -877 -877 -155 155 -155 155 875 875 c481 481
877 875 880 875 3 0 74 -69 158 -153z m-60 -1206 c276 -148 263 -533 -24 -663
-75 -34 -209 -32 -286 4 -75 35 -151 107 -184 175 -33 66 -43 175 -24 253 17
72 79 160 143 204 76 52 126 66 227 63 74 -3 93 -7 148 -36z"/>
<path d="M5250 4085 l0 -875 290 0 290 0 0 875 0 875 -290 0 -290 0 0 -875z"/>
<path d="M5250 2330 l0 -290 290 0 290 0 0 290 0 290 -290 0 -290 0 0 -290z"/>
</g>
</svg>
